<svg t="1729497226950" class="icon" viewBox="0 0 1024 1024" version="1.1" xmlns="http://www.w3.org/2000/svg" p-id="19234" width="200" height="200"><path d="M640 923.775h-128v-64h128c141.159 0 256-114.841 256-256s-114.841-256-256-256h-316v-64h316c85.475 0 165.834 33.286 226.274 93.726 60.439 60.44 93.726 140.799 93.726 226.274s-33.286 165.834-93.726 226.274-140.799 93.726-226.274 93.726z m-128-64.001h-36c-17.673 0-32 14.327-32 32 0 17.673 14.327 32 32 32h36m-127.656-809.902c-10.137-14.477-30.09-17.994-44.566-7.857L77.65 289.56c-14.479 10.137-17.996 30.09-7.858 44.566 6.639 9.482 17.49 14.262 28.256 13.584 0.646 0.039 1.297 0.064 1.953 0.064h224v-64H197.49l178.996-125.334c14.478-10.136 17.995-30.089 7.858-44.568z" p-id="19235" fill="#515151"></path></svg>