<svg t="1729642708761" class="icon" viewBox="0 0 1024 1024" version="1.1" xmlns="http://www.w3.org/2000/svg" p-id="2353" width="200" height="200"><path d="M156.444444 28.444444c-11.377778 0-22.755556 5.688889-34.133333 14.222223s-14.222222 22.755556-14.222222 34.133333v870.4c0 11.377778 5.688889 25.6 14.222222 34.133333 11.377778 8.533333 22.755556 14.222222 34.133333 14.222223h708.266667c11.377778 0 25.6-5.688889 34.133333-14.222223 8.533333-8.533333 14.222222-22.755556 14.222223-34.133333V301.511111L640 28.444444h-483.555556z" fill="#4ED195" p-id="2354"></path><path d="M915.911111 301.511111h-224.711111c-11.377778 0-25.6-5.688889-34.133333-14.222222-8.533333-8.533333-14.222222-22.755556-14.222223-34.133333V28.444444l273.066667 273.066667z" fill="#BDEBD7" p-id="2355"></path><path d="M475.022222 605.866667l-110.933333-153.6h76.8l71.111111 110.933333 73.955556-110.933333h73.955555l-110.933333 153.6 116.622222 162.133333h-76.8L512 651.377778 432.355556 768h-73.955556l116.622222-162.133333z" fill="#FFFFFF" p-id="2356" data-spm-anchor-id="a313x.search_index.0.i0.11683a81qhPLU3" class="selected"></path></svg>