<svg t="1729348053752" class="icon" viewBox="0 0 1024 1024" version="1.1" xmlns="http://www.w3.org/2000/svg" p-id="2783" width="128" height="128"><path d="M379.904 545.792h-133.12c-27.648 0-51.2 9.728-70.656 29.184-19.456 19.456-29.184 43.008-29.184 70.656v133.12c0 27.648 9.728 51.2 29.184 70.656 19.456 19.456 43.008 29.184 70.656 29.184h133.12c27.648 0 51.2-9.728 70.656-29.184 19.456-19.456 29.184-43.008 29.184-70.656v-133.12c0-27.648-9.728-51.2-29.184-70.656-19.456-18.944-43.52-29.184-70.656-29.184z m33.28 233.472c0 9.216-3.072 16.896-9.728 23.552-6.656 6.656-14.336 9.728-23.552 9.728h-133.12c-9.216 0-16.896-3.072-23.552-9.728-6.656-6.656-9.728-14.336-9.728-23.552v-133.12c0-9.216 3.072-16.896 9.728-23.552 6.656-6.656 14.336-9.728 23.552-9.728h133.12c9.216 0 16.896 3.072 23.552 9.728 6.656 6.656 9.728 14.336 9.728 23.552v133.12zM450.56 175.104c-19.456-19.456-43.008-29.184-70.656-29.184h-133.12c-27.648 0-51.2 9.728-70.656 29.184-19.456 19.456-29.184 43.008-29.184 70.656v133.12c0 27.648 9.728 51.2 29.184 70.656 19.456 19.456 43.008 29.184 70.656 29.184h133.12c27.648 0 51.2-9.728 70.656-29.184 19.456-19.456 29.184-43.008 29.184-70.656V245.76c0-27.136-9.728-50.688-29.184-70.656z m-37.376 204.288c0 9.216-3.072 16.896-9.728 23.552-6.656 6.656-14.336 9.728-23.552 9.728h-133.12c-9.216 0-16.896-3.072-23.552-9.728-6.656-6.656-9.728-14.336-9.728-23.552v-133.12c0-9.216 3.072-16.896 9.728-23.552 6.656-6.656 14.336-9.728 23.552-9.728h133.12c9.216 0 16.896 3.072 23.552 9.728 6.656 6.656 9.728 14.336 9.728 23.552v133.12zM850.432 175.104c-19.456-19.456-43.008-29.184-70.656-29.184h-133.12c-27.648 0-51.2 9.728-70.656 29.184-19.456 19.456-29.184 43.008-29.184 70.656v533.504c0 27.648 9.728 51.2 29.184 70.656 19.456 19.456 43.008 29.184 70.656 29.184h133.12c27.648 0 51.2-9.728 70.656-29.184 19.456-19.456 29.184-43.008 29.184-70.656V245.76c0-27.136-9.728-50.688-29.184-70.656z m-37.376 604.16c0 9.216-3.072 16.896-9.728 23.552-6.656 6.656-14.336 9.728-23.552 9.728h-133.12c-9.216 0-16.896-3.072-23.552-9.728-6.656-6.656-9.728-14.336-9.728-23.552V245.76c0-9.216 3.072-16.896 9.728-23.552 6.656-6.656 14.336-9.728 23.552-9.728h133.12c9.216 0 16.896 3.072 23.552 9.728 6.656 6.656 9.728 14.336 9.728 23.552v533.504z" fill="#515151" p-id="2784" data-spm-anchor-id="a313x.search_index.0.i0.28003a818xv7sI" class="selected"></path></svg>