<svg t="1731409287302" class="icon" viewBox="0 0 1024 1024" version="1.1" xmlns="http://www.w3.org/2000/svg" p-id="2335" width="200" height="200"><path d="M170.666667 0h512l256 256v682.666667a85.333333 85.333333 0 0 1-85.333334 85.333333H170.666667a85.333333 85.333333 0 0 1-85.333334-85.333333V85.333333a85.333333 85.333333 0 0 1 85.333334-85.333333z" fill="#4F9EF1" p-id="2336"></path><path d="M501.333333 615.808a21.333333 21.333333 0 1 1-21.333333 36.949333 106.666667 106.666667 0 0 1-39.04-145.706666l64-110.848a106.666667 106.666667 0 1 1 184.746667 106.666666l-42.666667 73.898667a21.333333 21.333333 0 0 1-36.949333-21.333333l42.666666-73.898667a64 64 0 1 0-110.848-64l-64 110.848a64 64 0 0 0 23.424 87.424z m21.333334-36.949333a21.333333 21.333333 0 0 1 21.333333-36.949334 106.666667 106.666667 0 0 1 39.04 145.706667l-64 110.848a106.666667 106.666667 0 1 1-184.746667-106.666667l42.666667-73.898666a21.333333 21.333333 0 1 1 36.949333 21.333333l-42.666666 73.898667a64 64 0 1 0 110.848 64l64-110.848a64 64 0 0 0-23.424-87.424z" fill="#FFFFFF" p-id="2337"></path><path d="M682.666667 0l256 256h-170.666667a85.333333 85.333333 0 0 1-85.333333-85.333333V0z" fill="#FFFFFF" fill-opacity=".5" p-id="2338"></path></svg>
