<svg t="1729473118447" class="icon" viewBox="0 0 1024 1024" version="1.1" xmlns="http://www.w3.org/2000/svg" p-id="7990" width="200" height="200"><path d="M159.9948 0h512L928.00312 256.00832v703.99376a63.99792 63.99792 0 0 1-63.99792 63.99792H159.9948A63.99792 63.99792 0 0 1 95.99688 960.00208V63.99792A63.99792 63.99792 0 0 1 159.9948 0z" fill="#FF8E37" p-id="7991"></path><path d="M673.109688 0L928.00312 254.893432H736.841366a63.715038 63.715038 0 0 1-63.731678-63.715038z" fill="#FF753F" p-id="7992"></path><path d="M778.308557 751.534597H199.365335c63.232474-94.582469 175.719718-252.314212 204.423933-252.314213 27.639247 0 121.472911 127.430076 164.054991 172.241932 0 0 54.596249-74.880562 83.200624-74.880562 29.086938 0.332802 126.331827 154.320517 127.263674 154.952843zM608.229842 421.461081a69.888524 69.888524 0 1 1 69.888524 71.552537 70.65397 70.65397 0 0 1-69.888524-71.552537z" fill="#FFFFFF" p-id="7993"></path></svg>